<svg width="23" height="24" viewBox="0 0 23 24" fill="none" xmlns="http://www.w3.org/2000/svg">
<path d="M21.9909 19.5C21.9909 19.9878 21.8201 20.4025 21.4787 20.7439L18.9909 23.2317C18.6494 23.5732 18.2348 23.7439 17.747 23.7439C17.2592 23.7439 16.8445 23.5732 16.5031 23.2317L11.125 17.8537L5.74696 23.2317C5.4055 23.5732 4.99086 23.7439 4.50306 23.7439C4.01525 23.7439 3.60062 23.5732 3.25916 23.2317L0.77135 20.7439C0.429887 20.4025 0.259155 19.9878 0.259155 19.5C0.259155 19.0122 0.429887 18.5976 0.77135 18.2561L6.1494 12.8781L0.77135 7.50001C0.429887 7.15855 0.259155 6.74391 0.259155 6.25611C0.259155 5.7683 0.429887 5.35367 0.77135 5.01221L3.25916 2.5244C3.60062 2.18294 4.01525 2.01221 4.50306 2.01221C4.99086 2.01221 5.4055 2.18294 5.74696 2.5244L11.125 7.90245L16.5031 2.5244C16.8445 2.18294 17.2592 2.01221 17.747 2.01221C18.2348 2.01221 18.6494 2.18294 18.9909 2.5244L21.4787 5.01221C21.8201 5.35367 21.9909 5.7683 21.9909 6.25611C21.9909 6.74391 21.8201 7.15855 21.4787 7.50001L16.1006 12.8781L21.4787 18.2561C21.8201 18.5976 21.9909 19.0122 21.9909 19.5Z" fill="black"/>
</svg>
